<?xml version="1.0" encoding="UTF-8" standalone="no" ?>
<!DOCTYPE svg PUBLIC "-//W3C//DTD SVG 1.1//EN" "http://www.w3.org/Graphics/SVG/1.1/DTD/svg11.dtd">
<svg xmlns="http://www.w3.org/2000/svg" xmlns:xlink="http://www.w3.org/1999/xlink" version="1.1" width="645" height="199" viewBox="0 0 645 199" xml:space="preserve">
<desc>Created with Fabric.js 3.6.3</desc>
<defs>
</defs>
<rect x="0" y="0" width="100%" height="100%" fill="rgba(255, 255, 255, 0)"></rect>
<g transform="matrix(1 0 0 1 124.62 97.18)"  >
<path style="stroke: none; stroke-width: 1; stroke-dasharray: none; stroke-linecap: butt; stroke-dashoffset: 0; stroke-linejoin: miter; stroke-miterlimit: 4; fill: rgb(255,255,255); fill-rule: nonzero; opacity: 1;"  transform=" translate(-142.78, -113.43)" d="M 143.59 161.33 a 49 49 0 0 1 -19 -3.69 A 47.51 47.51 0 0 1 95 113.3 a 46.32 46.32 0 0 1 3.82 -18.82 a 47 47 0 0 1 10.6 -15.2 A 48.49 48.49 0 0 1 125.3 69.15 a 52 52 0 0 1 19.48 -3.62 a 53.06 53.06 0 0 1 21.77 4.34 a 44.63 44.63 0 0 1 16.26 12 L 168.73 95.93 a 29.28 29.28 0 0 0 -10.53 -8.69 a 31.36 31.36 0 0 0 -13.69 -2.9 A 29.33 29.33 0 0 0 129.91 88 A 25.77 25.77 0 0 0 119.84 98.1 a 30.71 30.71 0 0 0 -3.62 15.2 a 31.5 31.5 0 0 0 3.56 15.26 a 26.1 26.1 0 0 0 9.73 10.27 a 27.29 27.29 0 0 0 14.22 3.68 a 28.9 28.9 0 0 0 13.88 -3.09 a 21.19 21.19 0 0 0 8.81 -8.95 a 30.2 30.2 0 0 0 3.09 -14.28 l 13.69 9.21 l -41.45 -0.66 V 107.25 h 48.82 v 3 q 0 16.71 -6 28.1 A 40.51 40.51 0 0 1 168 155.54 A 50.07 50.07 0 0 1 143.59 161.33 Z" stroke-linecap="round" />
</g>
<g transform="matrix(1 0 0 1 211.41 112.38)"  >
<path style="stroke: none; stroke-width: 1; stroke-dasharray: none; stroke-linecap: butt; stroke-dashoffset: 0; stroke-linejoin: miter; stroke-miterlimit: 4; fill: rgb(255,255,255); fill-rule: nonzero; opacity: 1;"  transform=" translate(-229.59, -128.63)" d="M 229.66 161.33 a 32.65 32.65 0 0 1 -15.6 -3.62 a 26.65 26.65 0 0 1 -10.59 -10 A 28 28 0 0 1 199.65 133 V 95.93 h 20.13 v 36.84 a 13.22 13.22 0 0 0 1.12 5.66 a 8.21 8.21 0 0 0 3.36 3.68 a 10.44 10.44 0 0 0 5.4 1.32 a 9.24 9.24 0 0 0 7.1 -2.83 c 1.75 -1.89 2.63 -4.49 2.63 -7.83 V 95.93 h 20.13 v 37 a 28.35 28.35 0 0 1 -3.81 14.81 a 26.89 26.89 0 0 1 -10.53 10 A 32.22 32.22 0 0 1 229.66 161.33 Z" stroke-linecap="round" />
</g>
<g transform="matrix(1 0 0 1 264.06 96.18)"  >
<path style="stroke: none; stroke-width: 1; stroke-dasharray: none; stroke-linecap: butt; stroke-dashoffset: 0; stroke-linejoin: miter; stroke-miterlimit: 4; fill: rgb(255,255,255); fill-rule: nonzero; opacity: 1;"  transform=" translate(-282.22, -112.44)" d="M 282.29 87.11 a 10.35 10.35 0 0 1 -7.83 -3.23 a 11.54 11.54 0 0 1 0 -15.72 A 10.47 10.47 0 0 1 282.29 65 a 10.27 10.27 0 0 1 7.76 3.16 a 11.71 11.71 0 0 1 0 15.72 A 10.15 10.15 0 0 1 282.29 87.11 Z m -10.14 72.77 V 95.93 h 20.14 v 63.95 Z" stroke-linecap="round" />
</g>
<g transform="matrix(1 0 0 1 307.48 98.43)"  >
<path style="stroke: none; stroke-width: 1; stroke-dasharray: none; stroke-linecap: butt; stroke-dashoffset: 0; stroke-linejoin: miter; stroke-miterlimit: 4; fill: rgb(255,255,255); fill-rule: nonzero; opacity: 1;"  transform=" translate(-325.65, -114.68)" d="M 301.1 113 V 95.93 h 49.09 V 113 Z m 14.48 46.85 V 69.48 h 20.13 v 90.4 Z" stroke-linecap="round" />
</g>
<g transform="matrix(1 0 0 1 369.57 111.68)"  >
<path style="stroke: none; stroke-width: 1; stroke-dasharray: none; stroke-linecap: butt; stroke-dashoffset: 0; stroke-linejoin: miter; stroke-miterlimit: 4; fill: rgb(255,255,255); fill-rule: nonzero; opacity: 1;"  transform=" translate(-387.75, -127.93)" d="M 384.4 161.2 a 29 29 0 0 1 -15.73 -4.34 A 31.06 31.06 0 0 1 357.75 145 a 35.64 35.64 0 0 1 -4 -17.11 a 35.62 35.62 0 0 1 4 -17.1 A 31 31 0 0 1 368.67 99 a 29 29 0 0 1 15.73 -4.34 a 26.51 26.51 0 0 1 11.65 2.5 a 22.65 22.65 0 0 1 8.48 6.91 a 18.56 18.56 0 0 1 3.69 10.07 v 27.63 a 18.92 18.92 0 0 1 -3.62 10.07 a 22 22 0 0 1 -8.49 6.91 A 27 27 0 0 1 384.4 161.2 Z M 388.48 143 a 13.45 13.45 0 0 0 10.39 -4.28 a 15.36 15.36 0 0 0 4 -10.86 a 16.93 16.93 0 0 0 -1.78 -7.89 a 13.12 13.12 0 0 0 -5 -5.33 a 15.43 15.43 0 0 0 -14.87 0 A 14 14 0 0 0 376 120 a 17.33 17.33 0 0 0 -0.06 15.66 a 13.72 13.72 0 0 0 5.13 5.39 A 14 14 0 0 0 388.48 143 Z M 402 159.88 V 142.64 l 3 -15.52 l -3 -15.53 V 95.93 h 19.75 v 63.95 Z" stroke-linecap="round" />
</g>
<g transform="matrix(1 0 0 1 443.23 111)"  >
<path style="stroke: none; stroke-width: 1; stroke-dasharray: none; stroke-linecap: butt; stroke-dashoffset: 0; stroke-linejoin: miter; stroke-miterlimit: 4; fill: rgb(255,255,255); fill-rule: nonzero; opacity: 1;"  transform=" translate(-461.39, -127.24)" d="M 436 159.88 V 95.93 h 20.13 v 63.95 Z m 20.13 -35.14 l -8.42 -6.58 q 2.51 -11.18 8.42 -17.37 c 4 -4.12 9.43 -6.18 16.45 -6.18 a 21.92 21.92 0 0 1 8.1 1.38 a 16.29 16.29 0 0 1 6.11 4.28 l -12 15.13 a 8.73 8.73 0 0 0 -3.29 -2.23 a 11.87 11.87 0 0 0 -4.47 -0.79 a 10.49 10.49 0 0 0 -8 3.09 Q 456.11 118.56 456.11 124.74 Z" stroke-linecap="round" />
</g>
<g transform="matrix(1 0 0 1 180.38 179.1)"  >
<path style="stroke: none; stroke-width: 1; stroke-dasharray: none; stroke-linecap: butt; stroke-dashoffset: 0; stroke-linejoin: miter; stroke-miterlimit: 4; fill: rgb(255,255,255); fill-rule: nonzero; opacity: 1;"  transform=" translate(-98.56, -197.35)" d="M 95 213.35 v -32 h 7.11 v 32 Z" stroke-linecap="round" />
</g>
<g transform="matrix(1 0 0 1 203.76 179.11)"  >
<path style="stroke: none; stroke-width: 1; stroke-dasharray: none; stroke-linecap: butt; stroke-dashoffset: 0; stroke-linejoin: miter; stroke-miterlimit: 4; fill: rgb(255,255,255); fill-rule: nonzero; opacity: 1;"  transform=" translate(-121.94, -197.36)" d="M 108.3 213.35 v -32 h 5 l 2.12 6.39 v 25.59 Z m 22.06 0 l -18.84 -24.14 l 1.77 -7.84 l 18.84 24.14 Z m 0 0 l -1.9 -6.39 V 181.37 h 7.11 v 32 Z" stroke-linecap="round" />
</g>
<g transform="matrix(1 0 0 1 232.69 179.12)"  >
<path style="stroke: none; stroke-width: 1; stroke-dasharray: none; stroke-linecap: butt; stroke-dashoffset: 0; stroke-linejoin: miter; stroke-miterlimit: 4; fill: rgb(255,255,255); fill-rule: nonzero; opacity: 1;"  transform=" translate(-150.86, -197.37)" d="M 150.69 213.85 a 16.42 16.42 0 0 1 -6.77 -1.29 a 16 16 0 0 1 -5.18 -3.92 l 4.62 -4.58 a 11.46 11.46 0 0 0 3.42 2.74 a 9.35 9.35 0 0 0 4.37 1 a 6.33 6.33 0 0 0 3.51 -0.82 a 2.56 2.56 0 0 0 1.24 -2.26 a 2.88 2.88 0 0 0 -0.81 -2.13 a 7.08 7.08 0 0 0 -2.15 -1.4 c -0.9 -0.4 -1.88 -0.77 -2.95 -1.14 s -2.13 -0.77 -3.19 -1.24 a 13.3 13.3 0 0 1 -2.92 -1.77 a 8 8 0 0 1 -2.15 -2.67 A 9 9 0 0 1 146.3 182 a 14.45 14.45 0 0 1 5.84 -1.11 a 15.7 15.7 0 0 1 6.14 1.17 a 12.66 12.66 0 0 1 4.6 3.22 l -4.62 4.57 a 11.14 11.14 0 0 0 -2.92 -2.22 a 7.47 7.47 0 0 0 -3.33 -0.72 a 5.39 5.39 0 0 0 -2.95 0.7 a 2.27 2.27 0 0 0 -1.08 2 a 2.56 2.56 0 0 0 0.81 2 a 7.13 7.13 0 0 0 2.15 1.29 c 0.89 0.36 1.87 0.72 2.95 1.08 s 2.13 0.79 3.19 1.27 a 13.54 13.54 0 0 1 2.92 1.83 a 8.29 8.29 0 0 1 2.15 2.81 a 9.6 9.6 0 0 1 0.82 4.19 a 8.69 8.69 0 0 1 -3.26 7.18 C 157.53 213 154.53 213.85 150.69 213.85 Z" stroke-linecap="round" />
</g>
<g transform="matrix(1 0 0 1 259.54 179.11)"  >
<path style="stroke: none; stroke-width: 1; stroke-dasharray: none; stroke-linecap: butt; stroke-dashoffset: 0; stroke-linejoin: miter; stroke-miterlimit: 4; fill: rgb(255,255,255); fill-rule: nonzero; opacity: 1;"  transform=" translate(-177.72, -197.36)" d="M 164.15 187.58 v -6.21 h 27.13 v 6.21 Z m 10 25.77 V 181.83 h 7.11 v 31.52 Z" stroke-linecap="round" />
</g>
<g transform="matrix(1 0 0 1 290 179.1)"  >
<path style="stroke: none; stroke-width: 1; stroke-dasharray: none; stroke-linecap: butt; stroke-dashoffset: 0; stroke-linejoin: miter; stroke-miterlimit: 4; fill: rgb(255,255,255); fill-rule: nonzero; opacity: 1;"  transform=" translate(-208.18, -197.35)" d="M 195.26 213.35 v -32 h 7.11 v 32 Z m 5.44 -13.18 v -5.25 h 6.74 a 4.65 4.65 0 0 0 3.29 -1.09 a 4.26 4.26 0 0 0 0 -5.8 a 4.44 4.44 0 0 0 -3.26 -1.13 H 200.7 v -5.53 h 7.6 a 12.35 12.35 0 0 1 5.58 1.2 a 9.37 9.37 0 0 1 3.76 3.33 a 9.59 9.59 0 0 1 0 9.81 a 9.14 9.14 0 0 1 -3.81 3.28 a 13.06 13.06 0 0 1 -5.75 1.18 Z m 12 13.18 l -10 -13.77 l 6.52 -1.77 l 11.87 15.54 Z" stroke-linecap="round" />
</g>
<g transform="matrix(1 0 0 1 318.68 179.36)"  >
<path style="stroke: none; stroke-width: 1; stroke-dasharray: none; stroke-linecap: butt; stroke-dashoffset: 0; stroke-linejoin: miter; stroke-miterlimit: 4; fill: rgb(255,255,255); fill-rule: nonzero; opacity: 1;"  transform=" translate(-236.85, -197.61)" d="M 236.93 213.85 a 14.06 14.06 0 0 1 -7 -1.68 a 12.14 12.14 0 0 1 -4.71 -4.64 a 13.42 13.42 0 0 1 -1.69 -6.77 V 181.37 h 7.15 v 19.8 a 6.39 6.39 0 0 0 0.82 3.3 a 5.46 5.46 0 0 0 2.24 2.15 a 6.66 6.66 0 0 0 3.15 0.75 a 6.46 6.46 0 0 0 3.17 -0.75 a 5.5 5.5 0 0 0 2.15 -2.13 a 6.45 6.45 0 0 0 0.79 -3.28 V 181.37 h 7.16 V 200.8 a 13.36 13.36 0 0 1 -1.68 6.75 a 12 12 0 0 1 -4.66 4.62 A 13.94 13.94 0 0 1 236.93 213.85 Z" stroke-linecap="round" />
</g>
<g transform="matrix(1 0 0 1 354.06 179.12)"  >
<path style="stroke: none; stroke-width: 1; stroke-dasharray: none; stroke-linecap: butt; stroke-dashoffset: 0; stroke-linejoin: miter; stroke-miterlimit: 4; fill: rgb(255,255,255); fill-rule: nonzero; opacity: 1;"  transform=" translate(-272.23, -197.37)" d="M 255.86 213.35 v -32 h 5.07 L 273.52 201 h -2.58 l 12.55 -19.61 h 5.11 v 32 h -7.11 v -20 l 1.27 0.31 l -8.2 12.77 h -4.71 l -8.15 -12.77 l 1.22 -0.31 v 20 Z" stroke-linecap="round" />
</g>
<g transform="matrix(1 0 0 1 388.03 179.1)"  >
<path style="stroke: none; stroke-width: 1; stroke-dasharray: none; stroke-linecap: butt; stroke-dashoffset: 0; stroke-linejoin: miter; stroke-miterlimit: 4; fill: rgb(255,255,255); fill-rule: nonzero; opacity: 1;"  transform=" translate(-306.2, -197.35)" d="M 294.72 213.35 v -32 h 7.11 v 32 Z m 5.43 -25.86 v -6.12 h 17.3 v 6.12 Z m 0 12.5 v -5.94 h 15.94 V 200 Z m 0 13.36 v -6.16 h 17.53 v 6.16 Z" stroke-linecap="round" />
</g>
<g transform="matrix(1 0 0 1 418.03 179.11)"  >
<path style="stroke: none; stroke-width: 1; stroke-dasharray: none; stroke-linecap: butt; stroke-dashoffset: 0; stroke-linejoin: miter; stroke-miterlimit: 4; fill: rgb(255,255,255); fill-rule: nonzero; opacity: 1;"  transform=" translate(-336.2, -197.36)" d="M 322.57 213.35 v -32 h 5 l 2.13 6.39 v 25.59 Z m 22.06 0 l -18.85 -24.14 l 1.77 -7.84 l 18.84 24.14 Z m 0 0 L 342.72 207 V 181.37 h 7.11 v 32 Z" stroke-linecap="round" />
</g>
<g transform="matrix(1 0 0 1 449.24 179.11)"  >
<path style="stroke: none; stroke-width: 1; stroke-dasharray: none; stroke-linecap: butt; stroke-dashoffset: 0; stroke-linejoin: miter; stroke-miterlimit: 4; fill: rgb(255,255,255); fill-rule: nonzero; opacity: 1;"  transform=" translate(-367.41, -197.36)" d="M 353.82 187.58 v -6.21 H 381 v 6.21 Z m 10 25.77 V 181.83 h 7.11 v 31.52 Z" stroke-linecap="round" />
</g>
<g transform="matrix(1 0 0 1 476.63 179.13)"  >
<path style="stroke: none; stroke-width: 1; stroke-dasharray: none; stroke-linecap: butt; stroke-dashoffset: 0; stroke-linejoin: miter; stroke-miterlimit: 4; fill: rgb(255,255,255); fill-rule: nonzero; opacity: 1;"  transform=" translate(-428.8, -197.37)" d="M 428.64 213.85 a 16.35 16.35 0 0 1 -6.77 -1.29 a 15.91 15.91 0 0 1 -5.19 -3.92 l 4.62 -4.58 a 11.58 11.58 0 0 0 3.42 2.74 a 9.35 9.35 0 0 0 4.37 1 a 6.33 6.33 0 0 0 3.51 -0.82 a 2.57 2.57 0 0 0 1.25 -2.26 a 2.89 2.89 0 0 0 -0.82 -2.13 a 7 7 0 0 0 -2.15 -1.4 c -0.89 -0.4 -1.87 -0.77 -2.95 -1.14 s -2.13 -0.77 -3.19 -1.24 a 13.3 13.3 0 0 1 -2.92 -1.77 a 8 8 0 0 1 -2.15 -2.67 A 9 9 0 0 1 424.24 182 a 14.47 14.47 0 0 1 5.85 -1.11 a 15.65 15.65 0 0 1 6.13 1.17 a 12.66 12.66 0 0 1 4.6 3.22 l -4.62 4.57 a 11.14 11.14 0 0 0 -2.92 -2.22 a 7.47 7.47 0 0 0 -3.33 -0.72 a 5.33 5.33 0 0 0 -2.94 0.7 a 2.25 2.25 0 0 0 -1.09 2 a 2.56 2.56 0 0 0 0.81 2 a 7.13 7.13 0 0 0 2.15 1.29 c 0.9 0.36 1.88 0.72 2.95 1.08 s 2.14 0.79 3.19 1.27 a 13.54 13.54 0 0 1 2.92 1.83 a 8.29 8.29 0 0 1 2.15 2.81 a 9.6 9.6 0 0 1 0.82 4.19 a 8.69 8.69 0 0 1 -3.26 7.18 Q 434.38 213.85 428.64 213.85 Z" stroke-linecap="round" />
</g>
<g transform="matrix(1 0 0 1 30.24 151.87)"  >
<path style="stroke: none; stroke-width: 1; stroke-dasharray: none; stroke-linecap: butt; stroke-dashoffset: 0; stroke-linejoin: miter; stroke-miterlimit: 4; fill: rgb(255,255,255); fill-rule: evenodd; opacity: 1;"  transform=" translate(-48.4, -168.13)" d="M 28.32 123 c -3 -0.05 -5.7 4.71 -5.37 12 c 0.39 8.57 6.43 17.27 6.43 25.55 c 0 7.09 -10.81 14.78 -10.71 29.35 c 0.1 16.6 8.4 25.71 31.15 25.71 s 28.32 -10.87 28.32 -25 c 0 -13 -8.38 -17.35 -8.38 -27.07 c 0 -10.22 5.42 -14.88 6.43 -20.6 c 1.19 -6.77 -2.56 -9.85 -5.33 -8.78 c -2.46 1 -1.34 7.37 -9.92 7.55 c -4.12 0.09 -7.16 -3.77 -7.16 -13.33 s -9.64 -10.6 -10.22 -1.22 c -0.18 2.78 -1.06 8.14 -6.81 8.17 C 30.35 135.34 32.14 123.11 28.32 123 Z" stroke-linecap="round" />
</g>
<g transform="matrix(1 0 0 1 30.44 80.37)"  >
<polygon style="stroke: none; stroke-width: 1; stroke-dasharray: none; stroke-linecap: butt; stroke-dashoffset: 0; stroke-linejoin: miter; stroke-miterlimit: 4; fill: rgb(255,255,255); fill-rule: evenodd; opacity: 1;"  points="-5.32,44.82 5.33,44.82 3.48,-44.82 -3.48,-44.82 -5.32,44.82 " />
</g>
<g transform="matrix(1 0 0 1 33.7 19.67)"  >
<path style="stroke: none; stroke-width: 1; stroke-dasharray: none; stroke-linecap: butt; stroke-dashoffset: 0; stroke-linejoin: miter; stroke-miterlimit: 4; fill: rgb(255,255,255); fill-rule: evenodd; opacity: 1;"  transform=" translate(-51.87, -35.93)" d="M 59.24 42.62 A 61.86 61.86 0 0 1 60 25.35 c 1.67 -8.41 -0.47 -13.15 -5.12 -2.27 L 43.74 49.2 c -0.44 1 -1.17 1.46 0.31 3.55 a 4.71 4.71 0 0 1 1 2.35 h 7.09 c 0 -1.18 1.37 -4.32 3.87 -6.42 C 57.55 47.38 59.4 44.46 59.24 42.62 Z" stroke-linecap="round" />
</g>
<g transform="matrix(0.39 -0.92 0.92 0.39 35.26 10.28)"  >
<rect style="stroke: none; stroke-width: 1; stroke-dasharray: none; stroke-linecap: butt; stroke-dashoffset: 0; stroke-linejoin: miter; stroke-miterlimit: 4; fill: rgb(255,255,255); fill-rule: nonzero; opacity: 1;"  x="-0.5" y="-1.69" rx="0" ry="0" width="1" height="3.38" />
</g>
<g transform="matrix(1 0 0 1 33.37 9.59)"  >
<path style="stroke: none; stroke-width: 1; stroke-dasharray: none; stroke-linecap: butt; stroke-dashoffset: 0; stroke-linejoin: miter; stroke-miterlimit: 4; fill: rgb(255,255,255); fill-rule: evenodd; opacity: 1;"  transform=" translate(-51.55, -25.83)" d="M 51.63 27.38 l -1.08 -0.46 c -0.85 -0.76 0 -2.71 1.13 -2.63 l 1.07 0.46 C 53.22 25.35 52.38 27.31 51.63 27.38 Z" stroke-linecap="round" />
</g>
<g transform="matrix(0.39 -0.92 0.92 0.39 33.46 14.5)"  >
<rect style="stroke: none; stroke-width: 1; stroke-dasharray: none; stroke-linecap: butt; stroke-dashoffset: 0; stroke-linejoin: miter; stroke-miterlimit: 4; fill: rgb(255,255,255); fill-rule: nonzero; opacity: 1;"  x="-0.5" y="-1.69" rx="0" ry="0" width="1" height="3.38" />
</g>
<g transform="matrix(1 0 0 1 31.58 13.81)"  >
<path style="stroke: none; stroke-width: 1; stroke-dasharray: none; stroke-linecap: butt; stroke-dashoffset: 0; stroke-linejoin: miter; stroke-miterlimit: 4; fill: rgb(255,255,255); fill-rule: evenodd; opacity: 1;"  transform=" translate(-49.75, -30.06)" d="M 49.82 31.61 l -1.08 -0.47 c -0.85 -0.76 0 -2.71 1.13 -2.63 L 51 29 C 51.41 29.57 50.57 31.53 49.82 31.61 Z" stroke-linecap="round" />
</g>
<g transform="matrix(0.39 -0.92 0.92 0.39 31.65 18.72)"  >
<rect style="stroke: none; stroke-width: 1; stroke-dasharray: none; stroke-linecap: butt; stroke-dashoffset: 0; stroke-linejoin: miter; stroke-miterlimit: 4; fill: rgb(255,255,255); fill-rule: nonzero; opacity: 1;"  x="-0.5" y="-1.69" rx="0" ry="0" width="1" height="3.38" />
</g>
<g transform="matrix(1 0 0 1 29.75 18.04)"  >
<path style="stroke: none; stroke-width: 1; stroke-dasharray: none; stroke-linecap: butt; stroke-dashoffset: 0; stroke-linejoin: miter; stroke-miterlimit: 4; fill: rgb(255,255,255); fill-rule: evenodd; opacity: 1;"  transform=" translate(-47.93, -34.28)" d="M 48 35.83 l -1.07 -0.46 c -0.85 -0.76 0 -2.72 1.12 -2.63 l 1.08 0.46 C 49.61 33.79 48.77 35.75 48 35.83 Z" stroke-linecap="round" />
</g>
<g transform="matrix(0.39 -0.92 0.92 0.39 29.84 22.94)"  >
<rect style="stroke: none; stroke-width: 1; stroke-dasharray: none; stroke-linecap: butt; stroke-dashoffset: 0; stroke-linejoin: miter; stroke-miterlimit: 4; fill: rgb(255,255,255); fill-rule: nonzero; opacity: 1;"  x="-0.5" y="-1.69" rx="0" ry="0" width="1" height="3.38" />
</g>
<g transform="matrix(1 0 0 1 27.95 22.26)"  >
<path style="stroke: none; stroke-width: 1; stroke-dasharray: none; stroke-linecap: butt; stroke-dashoffset: 0; stroke-linejoin: miter; stroke-miterlimit: 4; fill: rgb(255,255,255); fill-rule: evenodd; opacity: 1;"  transform=" translate(-46.13, -38.5)" d="M 46.21 40.05 l -1.08 -0.46 c -0.85 -0.76 0 -2.72 1.13 -2.63 l 1.07 0.46 C 47.8 38 47 40 46.21 40.05 Z" stroke-linecap="round" />
</g>
<g transform="matrix(0.39 -0.92 0.92 0.39 28.05 27.16)"  >
<rect style="stroke: none; stroke-width: 1; stroke-dasharray: none; stroke-linecap: butt; stroke-dashoffset: 0; stroke-linejoin: miter; stroke-miterlimit: 4; fill: rgb(255,255,255); fill-rule: nonzero; opacity: 1;"  x="-0.5" y="-1.69" rx="0" ry="0" width="1" height="3.38" />
</g>
<g transform="matrix(1 0 0 1 26.15 26.48)"  >
<path style="stroke: none; stroke-width: 1; stroke-dasharray: none; stroke-linecap: butt; stroke-dashoffset: 0; stroke-linejoin: miter; stroke-miterlimit: 4; fill: rgb(255,255,255); fill-rule: evenodd; opacity: 1;"  transform=" translate(-44.32, -42.72)" d="M 44.4 44.27 l -1.08 -0.46 c -0.85 -0.76 0 -2.72 1.13 -2.63 l 1.08 0.46 C 46 42.23 45.15 44.2 44.4 44.27 Z" stroke-linecap="round" />
</g>
<g transform="matrix(0.39 -0.92 0.92 0.39 26.23 31.38)"  >
<rect style="stroke: none; stroke-width: 1; stroke-dasharray: none; stroke-linecap: butt; stroke-dashoffset: 0; stroke-linejoin: miter; stroke-miterlimit: 4; fill: rgb(255,255,255); fill-rule: nonzero; opacity: 1;"  x="-0.5" y="-1.69" rx="0" ry="0" width="1" height="3.38" />
</g>
<g transform="matrix(1 0 0 1 24.34 30.68)"  >
<path style="stroke: none; stroke-width: 1; stroke-dasharray: none; stroke-linecap: butt; stroke-dashoffset: 0; stroke-linejoin: miter; stroke-miterlimit: 4; fill: rgb(255,255,255); fill-rule: evenodd; opacity: 1;"  transform=" translate(-42.52, -46.93)" d="M 42.6 48.49 L 41.52 48 c -0.85 -0.76 0 -2.72 1.12 -2.63 l 1.08 0.46 C 44.19 46.46 43.35 48.42 42.6 48.49 Z" stroke-linecap="round" />
</g>
<g transform="matrix(1 0 0 1 513.47 96.53)"  >
<path style="stroke: none; stroke-width: 1; stroke-dasharray: none; stroke-linecap: butt; stroke-dashoffset: 0; stroke-linejoin: miter; stroke-miterlimit: 4; fill: rgb(216,133,6); fill-rule: nonzero; opacity: 1;"  transform=" translate(-531.63, -112.78)" d="M 499 159.62 V 65.93 h 26.31 v 93.69 Z m 21.45 0 V 137.25 h 43.82 v 22.37 Z" stroke-linecap="round" />
</g>
<g transform="matrix(1 0 0 1 595.92 96.53)"  >
<path style="stroke: none; stroke-width: 1; stroke-dasharray: none; stroke-linecap: butt; stroke-dashoffset: 0; stroke-linejoin: miter; stroke-miterlimit: 4; fill: rgb(216,133,6); fill-rule: nonzero; opacity: 1;"  transform=" translate(-614.1, -112.78)" d="M 565.19 159.62 l 35.67 -93.69 H 627.7 L 663 159.62 H 635.6 L 609.41 80 h 9.47 L 592 159.62 Z m 23.17 -15.79 V 123.3 h 52.37 v 20.53 Z" stroke-linecap="round" />
</g>
</svg>